# xmcd
#
# Track frame offsets:
#	150
#	17448
#	34594
#	52706
#	66244
#	84630
#	102332
#	118999
#	134655
#	149708
#
# Disc length: 2200 seconds
#
# Revision: 1
# Processed by: cddbd v1.5.2PL0 Copyright (c) Steve Scherf et al.
# Submitted via: audiograbber 1.83.01
#
DISCID=8d08960a
DTITLE=Down-Home Band - Country Hits
DYEAR=2005
DGENRE=Country
TTITLE0=Bless The Broken Road
TTITLE1=Days Go By
TTITLE2=Don't!
TTITLE3=Hey Good Lookin'
TTITLE4=Come Home Soon
TTITLE5=It's Getting Better All The Time
TTITLE6=He Gets That From Me
TTITLE7=It's A Heartache
TTITLE8=My Give A Damn's Busted
TTITLE9=Monday Morning Church
EXTD=
EXTT0=
EXTT1=
EXTT2=
EXTT3=
EXTT4=
EXTT5=
EXTT6=
EXTT7=
EXTT8=
EXTT9=
PLAYORDER=
